<svg id="azek-logo" data-name="azek-logo" xmlns="http://www.w3.org/2000/svg" viewBox="0 0 257 86.7">
  <title>AZEK Building Products logo</title>
  <desc>Blue Azek word mark with champagne arrow pointing to the right, building products in small text underneath</desc>
  <path d="M217.63,56.69c1.47,0,1.38-1.13.65-1.88-0.4-.4-22.48-24.11-23.52-25.37a1.61,1.61,0,0,1-.15-2.17s22-23.77,23-24.72c1.51-1.51.69-2-.16-2s-13.35,0-15.06,0a4.56,4.56,0,0,0-3.51,1.62c-0.4.48-16.23,19.17-17.57,20.61a0.72,0.72,0,0,1-1.2-.61v-20c0-1.66-1.2-1.62-1.2-1.62H166.37A1.43,1.43,0,0,0,165,2.19s0,51.51,0,53.09,1.13,1.39,1.13,1.39h12.83c1.2,0,1.13-1.42,1.13-1.42s0-20.46,0-21,0.12-1.07.53-1.07a2.8,2.8,0,0,1,1.12,1l17.56,21.16A3.53,3.53,0,0,0,202,56.69h15.63Zm-59-12.93H133a1.87,1.87,0,0,1-2.15-1.87V35.82c0-1.93,2.23-1.76,2.23-1.76h22.53c1.83,0,1.7-1.47,1.7-1.47V23.44a1.43,1.43,0,0,0-1.7-1.43H133c-2.78,0-2.63-1.86-2.63-1.86V14.07c0-1.94,2.25-1.77,2.25-1.77H156.7c2.92,0,1.73-1.65,1.73-1.65S154,3.12,153.2,1.81A2.8,2.8,0,0,0,150.77.57h-33c-2,0-1.85,1.25-1.85,1.66V53.36c0,3.38,2.32,3.3,2.32,3.3h32.82A4.28,4.28,0,0,0,154.45,55s5-8.17,5.74-9.76-1.53-1.49-1.53-1.49m-52.85,1.31a2.9,2.9,0,0,0-2.2-.85H82.87c-2.24,0-.61-1.59-0.61-1.59s26.07-28.06,27.32-29.33,1.25-1.87,1.26-2.26,0-7.27,0-8.81A1.49,1.49,0,0,0,109.12.58l-50,0s-0.9,0-.23,1c0.79,1.2,5.57,9.2,5.57,9.2s0.54,0.87,2.4.87H91.44s1.27,0.24,0,1.6c-1,1.13-19.6,20.94-26.24,28,0,0-23.72-38.57-24.65-40s-6.94-1.29-8,.07c-0.49.63-19.8,33.11-20.85,34.42a3.44,3.44,0,0,1-2.62,1.06H2.6c-2.36,0-2.23,1.54-2.23,1.54v8.12C0.37,47,.32,48,2.06,48l2,0c1.07,0,.27,1,0,1.4S0.37,55.23.37,55.23c-1,1.31.28,1.4,0.28,1.4H15.41a2.45,2.45,0,0,0,2.17-1.32c0.14-.25,2.3-4.24,3.18-5.89A3.29,3.29,0,0,1,23.67,48L33,48a1.08,1.08,0,0,0,1-.53c0.19-.32,6.63-9.72,6.93-10.18s-0.11-.62-0.36-0.62H28.76c-1.74,0-.66-1.6-0.66-1.6S33.59,26,34.43,24.42c0.74-1.37,1.47-1.4,2.13-.12,0.18,0.35,16.07,29.21,16.81,30.36a4.93,4.93,0,0,0,3.78,2h53.6c1.6,0,1.66-.62,1.34-1.17-0.1-.18-5.48-9.35-6.29-10.42" transform="translate(0 -0.15)" style="fill: #005bbb"/>
  <path d="M256.15,54.87c-0.79-.8-22.78-24.67-23.12-25a2.22,2.22,0,0,0-1.92-.84L212,29c-1.07,0-1.29.85-.43,1.83,0.55,0.62,20.59,22.81,21.51,23.77,1.05,1.12,1.5,1.9.23,3.35L211.09,82.77c-0.75.84-.62,1.75,0.68,1.75h19.52a2.31,2.31,0,0,0,1.93-.77l22.93-25.31a2.3,2.3,0,0,0,0-3.57" transform="translate(0 -0.15)" style="fill: #988f86"/>
  <path d="M224.07,3.22c0.49,0,.93,0,0.93-0.62S224.56,2,224.17,2h-0.79V3.22h0.69Zm-0.69,2.14H222.8V1.55h1.45c0.9,0,1.34.33,1.34,1.09a1,1,0,0,1-1,1l1.08,1.68H225l-1-1.65h-0.67V5.36Zm0.7,0.85a2.67,2.67,0,0,0,2.67-2.76,2.68,2.68,0,1,0-5.36,0,2.67,2.67,0,0,0,2.69,2.76m-3.35-2.76a3.34,3.34,0,1,1,3.35,3.31,3.29,3.29,0,0,1-3.35-3.31" transform="translate(0 -0.15)" style="fill: #0069aa"/>
  <g>
    <path d="M60.59,73.06h5.2a4,4,0,0,1,2.93,1,2.57,2.57,0,0,1,.77,1.9v0A2.6,2.6,0,0,1,68,78.4a2.74,2.74,0,0,1,2.1,2.75v0c0,2-1.66,3.07-4.19,3.07H60.59V73.06Zm4.67,4.53c1.09,0,1.78-.35,1.78-1.18v0c0-.74-0.58-1.15-1.62-1.15H63v2.37h2.27Zm0.66,4.51c1.09,0,1.74-.38,1.74-1.22v0c0-.75-0.56-1.22-1.82-1.22H63V82.1h2.93Z" transform="translate(0 -0.15)" style="fill: #988f86"/>
    <path d="M71.81,81.23V75.68h2.43v4.78a1.46,1.46,0,0,0,1.47,1.74,1.49,1.49,0,0,0,1.52-1.74V75.68h2.43v8.57H77.24V83a3,3,0,0,1-2.51,1.38C72.89,84.42,71.81,83.2,71.81,81.23Z" transform="translate(0 -0.15)" style="fill: #988f86"/>
    <path d="M81.89,72.58h2.56v2.16H81.89V72.58ZM82,75.68h2.43v8.57H82V75.68Z" transform="translate(0 -0.15)" style="fill: #988f86"/>
    <path d="M86.78,72.58h2.43V84.26H86.78V72.58Z" transform="translate(0 -0.15)" style="fill: #988f86"/>
    <path d="M91.12,80v0c0-2.86,1.87-4.43,3.9-4.43a3.29,3.29,0,0,1,2.67,1.28V72.58h2.43V84.26H97.69V83A3.15,3.15,0,0,1,95,84.42C93,84.42,91.12,82.85,91.12,80Zm6.61,0v0a2.1,2.1,0,1,0-4.17,0v0A2.1,2.1,0,1,0,97.72,80Z" transform="translate(0 -0.15)" style="fill: #988f86"/>
    <path d="M102.34,72.58h2.56v2.16h-2.56V72.58Zm0.06,3.1h2.43v8.57h-2.43V75.68Z" transform="translate(0 -0.15)" style="fill: #988f86"/>
    <path d="M107.13,75.68h2.43V76.9a3,3,0,0,1,2.51-1.38c1.84,0,2.91,1.22,2.91,3.18v5.55h-2.43V79.47a1.46,1.46,0,0,0-1.47-1.74,1.49,1.49,0,0,0-1.52,1.74v4.78h-2.43V75.68Z" transform="translate(0 -0.15)" style="fill: #988f86"/>
    <path d="M117.14,86L118,84.13a5.59,5.59,0,0,0,2.9.78c1.66,0,2.45-.8,2.45-2.33V82.16a3.35,3.35,0,0,1-2.8,1.39,3.77,3.77,0,0,1-3.81-4v0a3.77,3.77,0,0,1,3.81-4,3.47,3.47,0,0,1,2.77,1.28V75.68h2.43v6.64a4.6,4.6,0,0,1-1.09,3.37,5,5,0,0,1-3.7,1.15A8.13,8.13,0,0,1,117.14,86Zm6.17-6.4v0a2.09,2.09,0,0,0-4.17,0v0a2,2,0,0,0,2.08,2A2,2,0,0,0,123.31,79.55Z" transform="translate(0 -0.15)" style="fill: #988f86"/>
    <path d="M132.94,73.06h4.58c2.67,0,4.29,1.58,4.29,3.87v0c0,2.59-2,3.94-4.53,3.94H135.4v3.36h-2.46V73.06Zm4.41,5.65a1.73,1.73,0,0,0,2-1.7v0c0-1.1-.77-1.7-2-1.7h-1.9v3.42h2Z" transform="translate(0 -0.15)" style="fill: #988f86"/>
    <path d="M143.37,75.68h2.43v1.73a2.65,2.65,0,0,1,2.74-1.89v2.54h-0.13c-1.62,0-2.61,1-2.61,3v3.17h-2.43V75.68Z" transform="translate(0 -0.15)" style="fill: #988f86"/>
    <path d="M149.4,80v0a4.64,4.64,0,0,1,9.28,0v0A4.64,4.64,0,0,1,149.4,80Zm6.88,0v0A2.28,2.28,0,0,0,154,77.62,2.2,2.2,0,0,0,151.8,80v0a2.28,2.28,0,0,0,2.26,2.37A2.2,2.2,0,0,0,156.28,80Z" transform="translate(0 -0.15)" style="fill: #988f86"/>
    <path d="M160.05,80v0c0-2.86,1.87-4.43,3.9-4.43a3.29,3.29,0,0,1,2.67,1.28V72.58h2.43V84.26h-2.43V83A3.15,3.15,0,0,1,164,84.42C162,84.42,160.05,82.85,160.05,80Zm6.61,0v0a2.1,2.1,0,1,0-4.18,0v0A2.1,2.1,0,1,0,166.66,80Z" transform="translate(0 -0.15)" style="fill: #988f86"/>
    <path d="M171.17,81.23V75.68h2.43v4.78c0,1.15.54,1.74,1.47,1.74a1.49,1.49,0,0,0,1.52-1.74V75.68H179v8.57h-2.43V83a3,3,0,0,1-2.51,1.38C172.24,84.42,171.17,83.2,171.17,81.23Z" transform="translate(0 -0.15)" style="fill: #988f86"/>
    <path d="M180.78,80v0a4.4,4.4,0,0,1,4.5-4.46A4.21,4.21,0,0,1,188.69,77l-1.49,1.6a2.51,2.51,0,0,0-2-.94A2.19,2.19,0,0,0,183.18,80v0a2.2,2.2,0,0,0,2.18,2.37,2.72,2.72,0,0,0,2-.91l1.42,1.44a4.32,4.32,0,0,1-3.5,1.57A4.38,4.38,0,0,1,180.78,80Z" transform="translate(0 -0.15)" style="fill: #988f86"/>
    <path d="M190.73,81.83V77.76h-1V75.68h1V73.49h2.43v2.19h2v2.08h-2v3.66a0.7,0.7,0,0,0,.78.83,2.47,2.47,0,0,0,1.2-.3v2a3.59,3.59,0,0,1-1.92.5C191.73,84.4,190.73,83.81,190.73,81.83Z" transform="translate(0 -0.15)" style="fill: #988f86"/>
    <path d="M196.29,83.12l1-1.6a4.85,4.85,0,0,0,2.7,1c0.7,0,1-.26,1-0.64v0c0-.53-0.83-0.7-1.78-1-1.2-.35-2.56-0.91-2.56-2.58v0c0-1.74,1.41-2.72,3.13-2.72a5.93,5.93,0,0,1,3.2,1l-0.93,1.68a5.08,5.08,0,0,0-2.32-.8,0.73,0.73,0,0,0-.9.59v0c0,0.48.82,0.7,1.74,1,1.2,0.4,2.59,1,2.59,2.54v0c0,1.9-1.42,2.77-3.28,2.77A6,6,0,0,1,196.29,83.12Z" transform="translate(0 -0.15)" style="fill: #988f86"/>
  </g>
</svg>